<svg width="37" height="37" viewBox="0 0 37 37" fill="none" xmlns="http://www.w3.org/2000/svg">
<g clip-path="url(#clip0_702_297)">
<path d="M18.2338 3.2835C23.1056 3.2835 23.6825 3.30487 25.5985 3.39034C27.3791 3.46869 28.3407 3.76784 28.9817 4.01713C29.8293 4.34476 30.4418 4.74363 31.0758 5.37754C31.7168 6.01857 32.1085 6.62399 32.4362 7.47157C32.6855 8.1126 32.9846 9.08127 33.0629 10.8548C33.1484 12.7779 33.1698 13.3548 33.1698 18.2195C33.1698 23.0914 33.1484 23.6683 33.0629 25.5843C32.9846 27.3649 32.6855 28.3264 32.4362 28.9675C32.1085 29.8151 31.7097 30.4276 31.0758 31.0615C30.4347 31.7025 29.8293 32.0943 28.9817 32.4219C28.3407 32.6712 27.372 32.9704 25.5985 33.0487C23.6754 33.1342 23.0985 33.1555 18.2338 33.1555C13.3619 33.1555 12.785 33.1342 10.869 33.0487C9.08839 32.9704 8.12685 32.6712 7.48582 32.4219C6.63823 32.0943 6.02569 31.6954 5.39178 31.0615C4.75075 30.4205 4.35901 29.8151 4.03137 28.9675C3.78208 28.3264 3.48293 27.3578 3.40459 25.5843C3.31912 23.6612 3.29775 23.0842 3.29775 18.2195C3.29775 13.3477 3.31912 12.7708 3.40459 10.8548C3.48293 9.07415 3.78208 8.1126 4.03137 7.47157C4.35901 6.62399 4.75787 6.01144 5.39178 5.37754C6.03281 4.73651 6.63823 4.34476 7.48582 4.01713C8.12685 3.76784 9.09552 3.46869 10.869 3.39034C12.785 3.30487 13.3619 3.2835 18.2338 3.2835ZM18.2338 0C13.2836 0 12.6639 0.0213677 10.7195 0.106838C8.78212 0.192309 7.4502 0.505702 6.29635 0.954424C5.09263 1.42451 4.07411 2.04418 3.0627 3.0627C2.04418 4.07411 1.42451 5.09263 0.954424 6.28923C0.505702 7.4502 0.192309 8.775 0.106838 10.7123C0.0213677 12.6639 0 13.2836 0 18.2338C0 23.1839 0.0213677 23.8036 0.106838 25.7481C0.192309 27.6854 0.505702 29.0173 0.954424 30.1712C1.42451 31.3749 2.04418 32.3934 3.0627 33.4048C4.07411 34.4162 5.09263 35.043 6.28923 35.506C7.4502 35.9547 8.775 36.2681 10.7123 36.3536C12.6568 36.439 13.2765 36.4604 18.2266 36.4604C23.1768 36.4604 23.7965 36.439 25.7409 36.3536C27.6783 36.2681 29.0102 35.9547 30.1641 35.506C31.3607 35.043 32.3792 34.4162 33.3906 33.4048C34.402 32.3934 35.0288 31.3749 35.4917 30.1783C35.9405 29.0173 36.2539 27.6925 36.3393 25.7552C36.4248 23.8107 36.4462 23.1911 36.4462 18.2409C36.4462 13.2907 36.4248 12.671 36.3393 10.7266C36.2539 8.78924 35.9405 7.45733 35.4917 6.30347C35.043 5.09263 34.4234 4.07411 33.4048 3.0627C32.3934 2.0513 31.3749 1.42451 30.1783 0.961546C29.0173 0.512825 27.6925 0.199432 25.7552 0.113961C23.8036 0.0213677 23.184 0 18.2338 0Z" fill="#000100"/>
<path d="M18.2337 8.86719C13.0627 8.86719 8.86755 13.0624 8.86755 18.2334C8.86755 23.4043 13.0627 27.5995 18.2337 27.5995C23.4047 27.5995 27.5999 23.4043 27.5999 18.2334C27.5999 13.0624 23.4047 8.86719 18.2337 8.86719ZM18.2337 24.3089C14.879 24.3089 12.1582 21.5881 12.1582 18.2334C12.1582 14.8786 14.879 12.1578 18.2337 12.1578C21.5885 12.1578 24.3093 14.8786 24.3093 18.2334C24.3093 21.5881 21.5885 24.3089 18.2337 24.3089Z" fill="#000100"/>
<path d="M30.1569 8.49718C30.1569 9.70802 29.174 10.6838 27.9703 10.6838C26.7595 10.6838 25.7837 9.70089 25.7837 8.49718C25.7837 7.28634 26.7666 6.31055 27.9703 6.31055C29.174 6.31055 30.1569 7.29346 30.1569 8.49718Z" fill="#000100"/>
</g>
<defs>
<clipPath id="clip0_702_297">
<rect width="36.4675" height="36.4675" fill="white"/>
</clipPath>
</defs>
</svg>
