<svg width="37" height="37" viewBox="0 0 37 37" fill="none" xmlns="http://www.w3.org/2000/svg">
<g clip-path="url(#clip0_702_303)">
<path d="M36.1043 11.4073C36.1043 11.4073 35.7481 8.89301 34.6513 7.78902C33.2624 6.33601 31.7097 6.32889 30.9974 6.24342C25.8976 5.87305 18.2409 5.87305 18.2409 5.87305H18.2266C18.2266 5.87305 10.5699 5.87305 5.47013 6.24342C4.75787 6.32889 3.20515 6.33601 1.81625 7.78902C0.719379 8.89301 0.370373 11.4073 0.370373 11.4073C0.370373 11.4073 0 14.3631 0 17.3119V20.0754C0 23.0242 0.363251 25.98 0.363251 25.98C0.363251 25.98 0.719379 28.4943 1.80913 29.5983C3.19803 31.0513 5.02141 31.0015 5.83338 31.1582C8.75363 31.4359 18.2338 31.5214 18.2338 31.5214C18.2338 31.5214 25.8976 31.5072 30.9974 31.1439C31.7097 31.0584 33.2624 31.0513 34.6513 29.5983C35.7481 28.4943 36.1043 25.98 36.1043 25.98C36.1043 25.98 36.4675 23.0313 36.4675 20.0754V17.3119C36.4675 14.3631 36.1043 11.4073 36.1043 11.4073ZM14.4659 23.4302V13.1808L24.3164 18.3233L14.4659 23.4302Z" fill="black"/>
</g>
<defs>
<clipPath id="clip0_702_303">
<rect width="36.4675" height="36.4675" fill="white" transform="translate(0 0.467773)"/>
</clipPath>
</defs>
</svg>
