<svg width="13" height="12" viewBox="0 0 13 12" fill="none" xmlns="http://www.w3.org/2000/svg">
<path d="M1.45189 9.96877L0.780369 10.6403L2.12341 11.9833L2.79493 11.3118L1.45189 9.96877ZM3.64289 0.573737L2.69322 0.573737L2.69322 2.47309H3.64289V0.573737ZM10.2906 9.12081V10.0705H12.19V9.12081H10.2906ZM2.79493 11.3118L11.9118 2.19493L10.5688 0.85189L1.45189 9.96877L2.79493 11.3118ZM3.64289 2.47309L11.2403 2.47309V0.573736L3.64289 0.573737V2.47309ZM11.2403 2.47309L12 2.47309L12 0.573738L11.2403 0.573736L11.2403 2.47309ZM12.19 9.12081L12.19 1.52341L10.2906 1.52341L10.2906 9.12081H12.19ZM12.19 1.52341L12.19 0.763671L10.2906 0.763673L10.2906 1.52341L12.19 1.52341Z" fill="black"/>
</svg>
