<svg width="13" height="12" viewBox="0 0 13 12" fill="none" xmlns="http://www.w3.org/2000/svg">
<path d="M1.45189 9.501L0.780369 10.1725L2.12341 11.5156L2.79493 10.844L1.45189 9.501ZM3.64289 0.105963L2.69322 0.105963L2.69322 2.00531H3.64289V0.105963ZM10.2906 8.65304V9.60272H12.19V8.65304H10.2906ZM2.79493 10.844L11.9118 1.72716L10.5688 0.384116L1.45189 9.501L2.79493 10.844ZM3.64289 2.00531L11.2403 2.00531V0.105963L3.64289 0.105963V2.00531ZM11.2403 2.00531L12 2.00531L12 0.105964L11.2403 0.105963L11.2403 2.00531ZM12.19 8.65304L12.19 1.05564L10.2906 1.05564L10.2906 8.65304H12.19ZM12.19 1.05564L12.19 0.295897L10.2906 0.2959L10.2906 1.05564L12.19 1.05564Z" fill="black"/>
</svg>
